<?xml version="1.0" encoding="UTF-8"?>
<svg width="22px" height="22px" fill="currentColor" viewBox="0 0 22 22" version="1.1" xmlns="http://www.w3.org/2000/svg" xmlns:xlink="http://www.w3.org/1999/xlink">
    <title>wechat1@2x</title>
    <g id="页面-1" stroke="none" stroke-width="1" fill="none" fill-rule="evenodd">
        <g id="图标" transform="translate(-171.000000, -591.000000)" fill-rule="nonzero">
            <g id="编组-48" transform="translate(128.000000, 250.000000)">
                <g id="wechat1" transform="translate(43.000000, 341.000000)">
                    <rect id="矩形" fill="#000000" opacity="0" x="0" y="0" width="22" height="22"></rect>
                    <path d="M14.8263672,8.10820313 C14.953125,8.10820313 15.0798828,8.1125 15.2044922,8.11894531 C14.6802734,5.35390625 11.8035156,3.23984375 8.33164063,3.23984375 C4.49023438,3.23984375 1.375,5.83085938 1.375,9.02773438 C1.375,10.7701172 2.31171875,12.340625 3.77910156,13.4019531 C3.89726563,13.4857422 3.97460937,13.6232422 3.97460937,13.7800781 C3.97460937,13.8316406 3.96386719,13.8789063 3.95097656,13.9283203 C3.8328125,14.3644531 3.64589844,15.0626953 3.63730469,15.0949219 C3.62226563,15.1507813 3.60078125,15.2066406 3.60078125,15.2646484 C3.60078125,15.3914062 3.70390625,15.4966797 3.8328125,15.4966797 C3.88222656,15.4966797 3.92304688,15.4773437 3.96601563,15.4537109 L5.48925781,14.575 C5.603125,14.5083984 5.72558594,14.4675781 5.85878906,14.4675781 C5.92753906,14.4675781 5.99628906,14.4783203 6.06289063,14.4976562 C6.77402344,14.7017578 7.54101563,14.815625 8.33378906,14.815625 C8.46269531,14.815625 8.58945312,14.8134766 8.71621094,14.8070312 C8.56367188,14.3558594 8.48203125,13.8810547 8.48203125,13.3890625 C8.48203125,10.4714844 11.3222656,8.10820312 14.8263672,8.10820312 L14.8263672,8.10820313 Z M10.6519531,6.24980469 C11.1632813,6.24980469 11.5800781,6.66445312 11.5800781,7.17578125 C11.5800781,7.68710938 11.1654297,8.10175781 10.6519531,8.10175781 C10.140625,8.10175781 9.72382813,7.68710938 9.72382813,7.17578125 C9.72382813,6.66445312 10.140625,6.24980469 10.6519531,6.24980469 Z M6.01347656,8.10175781 C5.50214844,8.10175781 5.08535156,7.68710938 5.08535156,7.17578125 C5.08535156,6.66445312 5.5,6.24980469 6.01347656,6.24980469 C6.52695312,6.24980469 6.94160156,6.66445312 6.94160156,7.17578125 C6.94160156,7.68710938 6.52480469,8.10175781 6.01347656,8.10175781 Z M18.6205078,17.0306641 C19.8429688,16.1455078 20.6228516,14.8392578 20.6228516,13.3847656 C20.6228516,10.7207031 18.0275391,8.56152344 14.8242188,8.56152344 C11.6230469,8.56152344 9.02558594,10.7207031 9.02558594,13.3847656 C9.02558594,16.0488281 11.6208984,18.2080078 14.8242188,18.2080078 C15.4859375,18.2080078 16.1261719,18.1134766 16.7169922,17.94375 C16.7728516,17.9265625 16.8287109,17.9179687 16.8867188,17.9179687 C16.9984375,17.9179687 17.0994141,17.9523437 17.1939453,18.0060547 L18.4636719,18.7365234 C18.5001953,18.7580078 18.5345703,18.7730469 18.5753906,18.7730469 C18.6269531,18.7730469 18.6763672,18.7537109 18.7128906,18.7171875 C18.7494141,18.6806641 18.76875,18.63125 18.76875,18.5796875 C18.76875,18.5324219 18.7494141,18.4851562 18.7386719,18.4378906 C18.7322266,18.4121094 18.5753906,17.8298828 18.4765625,17.4646484 C18.4658203,17.4238281 18.4572266,17.3830078 18.4572266,17.3421875 C18.459375,17.2154297 18.5238281,17.1015625 18.6205078,17.0306641 Z M12.8949219,12.615625 C12.4673828,12.615625 12.1214844,12.2697266 12.1214844,11.8443359 C12.1214844,11.4189453 12.4673828,11.0730469 12.8949219,11.0730469 C13.3224609,11.0730469 13.6683594,11.4189453 13.6683594,11.8443359 C13.6683594,12.2697266 13.3203125,12.615625 12.8949219,12.615625 Z M16.7599609,12.615625 C16.3324219,12.615625 15.9865234,12.2697266 15.9865234,11.8443359 C15.9865234,11.4189453 16.3324219,11.0730469 16.7599609,11.0730469 C17.1875,11.0730469 17.5333984,11.4189453 17.5333984,11.8443359 C17.53125,12.2697266 17.1853516,12.615625 16.7599609,12.615625 Z" id="形状" fill="#6B7287"></path>
                </g>
            </g>
        </g>
    </g>
</svg>